<svg xmlns="http://www.w3.org/2000/svg" viewBox="0 0 100 100">
  <path d="M38 10 C43 3 57 3 62 10 C70 8 82 12 88 22 Q92 32 88 42 C82 48 74 48 74 48 L74 90 L26 90 L26 48 C26 48 18 48 12 42 Q8 32 12 22 C18 12 30 8 38 10 Z" fill="currentColor" fill-opacity="0.18"/>
  <g fill="none" stroke="currentColor" stroke-linecap="round" stroke-linejoin="round">
    <path d="M38 10 C43 3 57 3 62 10 C70 8 82 12 88 22 Q92 32 88 42 C82 48 74 48 74 48 L74 90 L26 90 L26 48 C26 48 18 48 12 42 Q8 32 12 22 C18 12 30 8 38 10 Z" stroke-width="2.5"/>
    <path d="M40 11 C44 5 56 5 60 11" stroke-width="1.5"/>
    <path d="M38 10 C40 20 42 32 42 48 M62 10 C60 20 58 32 58 48" stroke-width="1.1" opacity="0.38"/>
    <path d="M26 48 C28 42 32 38 38 36 M74 48 C72 42 68 38 62 36" stroke-width="1" opacity="0.32"/>
    <path d="M27 87 L73 87" stroke-width="1" opacity="0.4"/>
  </g>
</svg>